TITLE ""
FILE "Step4_Track04.mp3" MP3
  TRACK 01 AUDIO
    TITLE "Step4_Track04_01"
    INDEX 01 00:00:00
  TRACK 02 AUDIO
    TITLE "Step4_Track04_02"
    INDEX 01 00:00:22
  TRACK 03 AUDIO
    TITLE "Step4_Track04_03"
    INDEX 01 00:01:47
  TRACK 04 AUDIO
    TITLE "Step4_Track04_04"
    INDEX 01 00:02:17
  TRACK 05 AUDIO
    TITLE "Step4_Track04_05"
    INDEX 01 00:03:16
  TRACK 06 AUDIO
    TITLE "Step4_Track04_06"
    INDEX 01 00:03:40
  TRACK 07 AUDIO
    TITLE "Step4_Track04_07"
    INDEX 01 00:06:34
  TRACK 08 AUDIO
    TITLE "Step4_Track04_08"
    INDEX 01 00:06:46
  TRACK 09 AUDIO
    TITLE "Step4_Track04_09"
    INDEX 01 00:07:40
  TRACK 10 AUDIO
    TITLE "Step4_Track04_10"
    INDEX 01 00:07:53
  TRACK 11 AUDIO
    TITLE "Step4_Track04_11"
    INDEX 01 00:10:52
  TRACK 12 AUDIO
    TITLE "Step4_Track04_12"
    INDEX 01 00:10:73
  TRACK 13 AUDIO
    TITLE "Step4_Track04_13"
    INDEX 01 00:11:67
  TRACK 14 AUDIO
    TITLE "Step4_Track04_14"
    INDEX 01 00:12:12
  TRACK 15 AUDIO
    TITLE "Step4_Track04_15"
    INDEX 01 00:14:28
  TRACK 16 AUDIO
    TITLE "Step4_Track04_16"
    INDEX 01 00:14:42
  TRACK 17 AUDIO
    TITLE "Step4_Track04_17"
    INDEX 01 00:15:43
  TRACK 18 AUDIO
    TITLE "Step4_Track04_18"
    INDEX 01 00:15:61
  TRACK 19 AUDIO
    TITLE "Step4_Track04_19"
    INDEX 01 00:18:51
  TRACK 20 AUDIO
    TITLE "Step4_Track04_20"
    INDEX 01 00:19:15
  TRACK 21 AUDIO
    TITLE "Step4_Track04_21"
    INDEX 01 00:20:07
  TRACK 22 AUDIO
    TITLE "Step4_Track04_22"
    INDEX 01 00:20:15
  TRACK 23 AUDIO
    TITLE "Step4_Track04_23"
    INDEX 01 00:21:71
  TRACK 24 AUDIO
    TITLE "Step4_Track04_24"
    INDEX 01 00:22:10
  TRACK 25 AUDIO
    TITLE "Step4_Track04_25"
    INDEX 01 00:23:13
  TRACK 26 AUDIO
    TITLE "Step4_Track04_26"
    INDEX 01 00:23:19
  TRACK 27 AUDIO
    TITLE "Step4_Track04_27"
    INDEX 01 00:26:23
  TRACK 28 AUDIO
    TITLE "Step4_Track04_28"
    INDEX 01 00:26:41
  TRACK 29 AUDIO
    TITLE "Step4_Track04_29"
    INDEX 01 00:27:44
  TRACK 30 AUDIO
    TITLE "Step4_Track04_30"
    INDEX 01 00:27:54
  TRACK 31 AUDIO
    TITLE "Step4_Track04_31"
    INDEX 01 00:30:54
  TRACK 32 AUDIO
    TITLE "Step4_Track04_32"
    INDEX 01 00:31:07
  TRACK 33 AUDIO
    TITLE "Step4_Track04_33"
    INDEX 01 00:31:70
  TRACK 34 AUDIO
    TITLE "Step4_Track04_34"
    INDEX 01 00:32:12
  TRACK 35 AUDIO
    TITLE "Step4_Track04_35"
    INDEX 01 00:34:43
  TRACK 36 AUDIO
    TITLE "Step4_Track04_36"
    INDEX 01 00:34:68
  TRACK 37 AUDIO
    TITLE "Step4_Track04_37"
    INDEX 01 00:35:67
  TRACK 38 AUDIO
    TITLE "Step4_Track04_38"
    INDEX 01 00:36:12
  TRACK 39 AUDIO
    TITLE "Step4_Track04_39"
    INDEX 01 00:39:03
  TRACK 40 AUDIO
    TITLE "Step4_Track04_40"
    INDEX 01 00:39:28
  TRACK 41 AUDIO
    TITLE "Step4_Track04_41"
    INDEX 01 00:40:24
  TRACK 42 AUDIO
    TITLE "Step4_Track04_42"
    INDEX 01 00:40:41
  TRACK 43 AUDIO
    TITLE "Step4_Track04_43"
    INDEX 01 00:42:26
